HIERARCHY
ROOT hips
{
  OFFSET 0 10.680822821525009 1.3929502295107734
  CHANNELS 6 Xposition Yposition Zposition Yrotation Xrotation Zrotation
  JOINT spine
  {
    OFFSET -7.042017322922631e-31 0.6058489940359625 0
    CHANNELS 3 Yrotation Xrotation Zrotation
    JOINT chest
    {
      OFFSET 0 1.2699794144455032 0
      CHANNELS 3 Yrotation Xrotation Zrotation
      JOINT upperChest
      {
        OFFSET 0 1.217799211677689 0
        CHANNELS 3 Yrotation Xrotation Zrotation
        JOINT neck
        {
          OFFSET 0 1.5248826104153006 0
          CHANNELS 3 Yrotation Xrotation Zrotation
          JOINT head
          {
            OFFSET 0 0.8197772727844447 0
            CHANNELS 3 Yrotation Xrotation Zrotation
            JOINT leftEye
            {
              OFFSET 0.2793952361220866 0.6769952096623495 0.1830357412467788
              CHANNELS 3 Yrotation Xrotation Zrotation
              End Site
              {
                OFFSET 0.2793952361220866 0.6769952096623495 0.1830357412467788
              }
            }
            JOINT rightEye
            {
              OFFSET -0.27939522230689573 0.676995205357064 0.18303631459760622
              CHANNELS 3 Yrotation Xrotation Zrotation
              End Site
              {
                OFFSET -0.27939522230689573 0.676995205357064 0.18303631459760622
              }
            }
          }
        }
        JOINT leftShoulder
        {
          OFFSET 0.41486978509200423 1.1670505408695453 0
          CHANNELS 3 Yrotation Xrotation Zrotation
          JOINT leftUpperArm
          {
            OFFSET 0.9737926108153417 0 0
            CHANNELS 3 Yrotation Xrotation Zrotation
            JOINT leftLowerArm
            {
              OFFSET 2.5269332222665284 0 0
              CHANNELS 3 Yrotation Xrotation Zrotation
              JOINT leftHand
              {
                OFFSET 2.4263782738425914 0 0
                CHANNELS 3 Yrotation Xrotation Zrotation
                JOINT leftIndexProximal
                {
                  OFFSET 0.724320348022514 0.08170607082582437 0.20360061616140124
                  CHANNELS 3 Yrotation Xrotation Zrotation
                  JOINT leftIndexIntermediate
                  {
                    OFFSET 0.36548960630744587 -0.010566596513783999 -0.01414783573280308
                    CHANNELS 3 Yrotation Xrotation Zrotation
                    JOINT leftIndexDistal
                    {
                      OFFSET 0.22502819650693362 -0.007863819831430696 -0.007567681939621526
                      CHANNELS 3 Yrotation Xrotation Zrotation
                      End Site
                      {
                        OFFSET 0.22502819650693362 -0.007863819831430696 -0.007567681939621526
                      }
                    }
                  }
                }
                JOINT leftLittleProximal
                {
                  OFFSET 0.6720322998298205 0.08170601055037707 -0.3230036039466837
                  CHANNELS 3 Yrotation Xrotation Zrotation
                  JOINT leftLittleIntermediate
                  {
                    OFFSET 0.34583592281688713 5.476543019078406e-8 1.3869203337180114e-7
                    CHANNELS 3 Yrotation Xrotation Zrotation
                    JOINT leftLittleDistal
                    {
                      OFFSET 0.19925728062053938 0.003098047439490381 0.0038303983709246925
                      CHANNELS 3 Yrotation Xrotation Zrotation
                      End Site
                      {
                        OFFSET 0.19925728062053938 0.003098047439490381 0.0038303983709246925
                      }
                    }
                  }
                }
                JOINT leftMiddleProximal
                {
                  OFFSET 0.7300436596551069 0.0817073395107144 0.022661722987926763
                  CHANNELS 3 Yrotation Xrotation Zrotation
                  JOINT leftMiddleIntermediate
                  {
                    OFFSET 0.40758254347686607 -0.0000012383587111308714 2.408460318820138e-7
                    CHANNELS 3 Yrotation Xrotation Zrotation
                    JOINT leftMiddleDistal
                    {
                      OFFSET 0.2514490105498507 0.0000013869132886590307 9.738618134136345e-8
                      CHANNELS 3 Yrotation Xrotation Zrotation
                      End Site
                      {
                        OFFSET 0.2514490105498507 0.0000013869132886590307 9.738618134136345e-8
                      }
                    }
                  }
                }
                JOINT leftRingProximal
                {
                  OFFSET 0.7217261161191838 0.08170601902187746 -0.15043395722184966
                  CHANNELS 3 Yrotation Xrotation Zrotation
                  JOINT leftRingIntermediate
                  {
                    OFFSET 0.37808807487521556 0.0000013754022405443322 2.2046919317952884e-7
                    CHANNELS 3 Yrotation Xrotation Zrotation
                    JOINT leftRingDistal
                    {
                      OFFSET 0.21812105442344254 -0.002713483731960231 -0.004991354517454624
                      CHANNELS 3 Yrotation Xrotation Zrotation
                      End Site
                      {
                        OFFSET 0.21812105442344254 -0.002713483731960231 -0.004991354517454624
                      }
                    }
                  }
                }
                JOINT leftThumbProximal
                {
                  OFFSET 0.10793587079521427 -0.1652791240518252 -0.07775251827190094
                  CHANNELS 3 Yrotation Xrotation Zrotation
                  JOINT leftThumbIntermediate
                  {
                    OFFSET 0.40355819082296684 -0.017484006740276614 0.3177776014416309
                    CHANNELS 3 Yrotation Xrotation Zrotation
                    JOINT leftThumbDistal
                    {
                      OFFSET 0.2318764658022603 -0.018510186824293617 0.21396001800186287
                      CHANNELS 3 Yrotation Xrotation Zrotation
                      End Site
                      {
                        OFFSET 0.2318764658022603 -0.018510186824293617 0.21396001800186287
                      }
                    }
                  }
                }
              }
            }
          }
        }
        JOINT rightShoulder
        {
          OFFSET -0.4148697850920044 1.1670505408695453 0
          CHANNELS 3 Yrotation Xrotation Zrotation
          JOINT rightUpperArm
          {
            OFFSET -0.9737926108153414 0 0
            CHANNELS 3 Yrotation Xrotation Zrotation
            JOINT rightLowerArm
            {
              OFFSET -2.5269332222665293 0 0
              CHANNELS 3 Yrotation Xrotation Zrotation
              JOINT rightHand
              {
                OFFSET -2.42637827384259 0 0
                CHANNELS 3 Yrotation Xrotation Zrotation
                JOINT rightIndexProximal
                {
                  OFFSET -0.724320348022514 0.08170607082582437 0.20360061616140124
                  CHANNELS 3 Yrotation Xrotation Zrotation
                  JOINT rightIndexIntermediate
                  {
                    OFFSET -0.36548960630744587 -0.010566596513783999 -0.01414783573280308
                    CHANNELS 3 Yrotation Xrotation Zrotation
                    JOINT rightIndexDistal
                    {
                      OFFSET -0.22502819650693362 -0.007863819831430696 -0.007567681939621526
                      CHANNELS 3 Yrotation Xrotation Zrotation
                      End Site
                      {
                        OFFSET -0.22502819650693362 -0.007863819831430696 -0.007567681939621526
                      }
                    }
                  }
                }
                JOINT rightLittleProximal
                {
                  OFFSET -0.6720322998298205 0.08170601055037707 -0.3230036039466837
                  CHANNELS 3 Yrotation Xrotation Zrotation
                  JOINT rightLittleIntermediate
                  {
                    OFFSET -0.34583592281688713 5.476543019078406e-8 1.3869203337180114e-7
                    CHANNELS 3 Yrotation Xrotation Zrotation
                    JOINT rightLittleDistal
                    {
                      OFFSET -0.19925728062053938 0.003098047439490381 0.0038303983709246925
                      CHANNELS 3 Yrotation Xrotation Zrotation
                      End Site
                      {
                        OFFSET -0.19925728062053938 0.003098047439490381 0.0038303983709246925
                      }
                    }
                  }
                }
                JOINT rightMiddleProximal
                {
                  OFFSET -0.7300436596551069 0.0817073395107144 0.022661722987926763
                  CHANNELS 3 Yrotation Xrotation Zrotation
                  JOINT rightMiddleIntermediate
                  {
                    OFFSET -0.40758254347686607 -0.0000012383587111308714 2.408460318820138e-7
                    CHANNELS 3 Yrotation Xrotation Zrotation
                    JOINT rightMiddleDistal
                    {
                      OFFSET -0.2514490105498507 0.0000013869132886590307 9.738618134136345e-8
                      CHANNELS 3 Yrotation Xrotation Zrotation
                      End Site
                      {
                        OFFSET -0.2514490105498507 0.0000013869132886590307 9.738618134136345e-8
                      }
                    }
                  }
                }
                JOINT rightRingProximal
                {
                  OFFSET -0.7217261161191838 0.08170601902187746 -0.15043395722184966
                  CHANNELS 3 Yrotation Xrotation Zrotation
                  JOINT rightRingIntermediate
                  {
                    OFFSET -0.37808807487521556 0.0000013754022405443322 2.2046919317952884e-7
                    CHANNELS 3 Yrotation Xrotation Zrotation
                    JOINT rightRingDistal
                    {
                      OFFSET -0.21812105442344254 -0.002713483731960231 -0.004991354517454624
                      CHANNELS 3 Yrotation Xrotation Zrotation
                      End Site
                      {
                        OFFSET -0.21812105442344254 -0.002713483731960231 -0.004991354517454624
                      }
                    }
                  }
                }
                JOINT rightThumbProximal
                {
                  OFFSET -0.10793587079521427 -0.1652791240518252 -0.07775251827190094
                  CHANNELS 3 Yrotation Xrotation Zrotation
                  JOINT rightThumbIntermediate
                  {
                    OFFSET -0.40355819082296684 -0.017484006740276614 0.3177776014416309
                    CHANNELS 3 Yrotation Xrotation Zrotation
                    JOINT rightThumbDistal
                    {
                      OFFSET -0.2318764658022603 -0.018510186824293617 0.21396001800186287
                      CHANNELS 3 Yrotation Xrotation Zrotation
                      End Site
                      {
                        OFFSET -0.2318764658022603 -0.018510186824293617 0.21396001800186287
                      }
                    }
                  }
                }
              }
            }
          }
        }
      }
    }
  }
  JOINT leftUpperLeg
  {
    OFFSET 0.8486251390888677 -0.4421577294694363 0
    CHANNELS 3 Yrotation Xrotation Zrotation
    JOINT leftLowerLeg
    {
      OFFSET 0 -4.10147812638609 0
      CHANNELS 3 Yrotation Xrotation Zrotation
      JOINT leftFoot
      {
        OFFSET -0.0002543926476658853 -4.77292286812444 0.007402811231737388
        CHANNELS 3 Yrotation Xrotation Zrotation
        JOINT leftToes
        {
          OFFSET 0 -0.7027875951174846 1.2062924140498823
          CHANNELS 3 Yrotation Xrotation Zrotation
          End Site
          {
            OFFSET 0 -0.7027875951174846 1.2062924140498823
          }
        }
      }
    }
  }
  JOINT rightUpperLeg
  {
    OFFSET -0.8486251390888677 -0.4421577294694363 0
    CHANNELS 3 Yrotation Xrotation Zrotation
    JOINT rightLowerLeg
    {
      OFFSET 0 -4.10147812638609 0
      CHANNELS 3 Yrotation Xrotation Zrotation
      JOINT rightFoot
      {
        OFFSET 0.0002543926476658853 -4.77292286812444 0.007402811231737388
        CHANNELS 3 Yrotation Xrotation Zrotation
        JOINT rightToes
        {
          OFFSET 0 -0.7027875951174846 1.2062924140498823
          CHANNELS 3 Yrotation Xrotation Zrotation
          End Site
          {
            OFFSET 0 -0.7027875951174846 1.2062924140498823
          }
        }
      }
    }
  }
}
MOTION
Frames: 4
Frame Time: 0.03333333333333333
0.022398855537176132 -0.31694647875157145 0.07455416023731232 -0.14570875038164455 -3.380122997956148 -8.363762658629174 -0.9666973406419201 -2.9360480403784615 8.844499264786494 -0.5075546526628338 3.8933577464349876 4.41740053110702 0 0 0 -0.49952081915753993 4.658276416660132 -5.053353705405583 -1.6518159013070322 -11.586067462849972 0.9386863858643598 0 0 0 0 0 0 -6.861964272752898 0.5309387467361626 -9.64859688748471 0.4627830999165534 2.1808347782655852 -65.73665800733005 -21.578219872651715 -3.2810782451951597 0.9071497826926451 -8.513837895063848 17.17422327496034 -5.229395290525238 -0.21302382951302334 -0.3741802727475378 -10.685041604235801 1.3842013080999236 0.15624146459386 -12.861668521885898 1.6476695608074854 0.22618934551339123 -15.572830048325862 5.796364687025199 1.1911126228258886 -12.453621013508167 -2.6547179362347415 0.21596846494966818 -13.939429809487224 1.102013105896419 0.13778495196054255 -10.400409714054108 -0.008631237277875138 -0.0945077095442794 -4.36405016545253 1.5153304072303098 0.1882012117712362 -14.204375942300395 1.8013483853337 0.26864974675401077 -16.964192778166876 -0.19403053384670801 -0.3619714311833817 -10.537618271366682 1.730501987761473 0.24803933458849853 -16.300327667506984 2.601505976810795 0.5760255962637555 -24.952238073244317 10.690633782454045 -2.4370837783850026 13.816129145837087 6.727724250385563 3.443426829235591 0.9451442656651807 4.767231001946617 -9.030803707369715 -3.7564942286371252 5.346496348095077 0.5260719765468586 11.149586796550334 7.567937375375973 7.756099846029425 55.384507134336985 29.09379634798798 -4.309243687923396 -1.5020113714978578 5.594522132213957 16.22014731067179 3.8092877848439013 -3.3305715951466817 1.0481945390867764 21.900059009603453 -1.0859835475403614 0.0986498716457208 10.305210572087873 -1.6511165788590318 0.21978883615491604 15.262722165833353 -1.9957988631354528 0.3934792986647487 14.912668794964032 -1.4516394320759638 0.15543500570089233 14.337543510506164 -2.4163338239137957 0.42326061403592896 22.1655695354553 -1.3928857440533524 0.13769329109062536 13.455955655493636 -1.345458348030514 0.159795657759539 13.371863411308592 -5.123442542537842 -2.893048030429981 25.489517186599592 -2.315855360472311 0.48370400124264384 19.804149564101508 -1.2270912187484913 0.11841639462381741 11.116912451765675 -7.805881591603178 -10.16259650985395 19.70046082997014 -8.894856005587288 -1.4639511044209632 -14.472695190517927 -21.65276420572822 5.72889349376972 -5.822908246435919 6.960183392492386 -3.657092374196183 2.251435585385533 6.655668399587312 -16.696525433136475 14.087743041285838 9.684456476402126 30.702459277910027 3.9221311319189174 1.557027779821313 -11.114816919210591 -5.8552467161295745 -0.000006382103262935162 0.00001872258051859011 9.362913817959807e-7 -7.979656299788082 -3.056890987577992 9.417485118658433 -7.632546250293801 18.663367823089203 -1.4620913572292 -0.006497665943709781 -11.363136037816597 -0.9035699600596383 -0.000011188783621086863 -0.4860500951501115 -0.0000017112610927394243
0.022063560783863068 -0.31755969133702067 0.07293388992547989 -0.15888615629435612 -3.378347262874161 -8.389032612143343 -0.9549331727950615 -2.871728156420691 8.84612232176281 -0.515662976711656 3.7370695813190307 4.416792598146663 0 0 0 -0.49186508666471024 4.689344388840038 -5.058000824038231 -1.63518093178643 -11.486601492583672 0.9440019341537307 0 0 0 0 0 0 -6.839498332106561 0.5312112189555952 -9.642942657758105 0.5788117672127385 2.277791417009583 -65.77935949396232 -21.552849372108074 -3.2774905767274034 0.9053546314754067 -8.568359212678054 17.050816157116596 -5.125167543678794 -0.21302479002223507 -0.3741604220869736 -10.685015168178706 1.384207176102652 0.15623571494058425 -12.86169009097787 1.6476680673097563 0.2261989505417605 -15.572872275851454 5.796369359781178 1.191118707277854 -12.453581279705617 -2.6547038639884275 0.21596930538907172 -13.93939088140787 1.10200520992791 0.13779199561349212 -10.400425446046773 -0.00863594554572711 -0.09451362593689268 -4.364070856506552 1.5153342478888965 0.1882097095329042 -14.204375114625039 1.8013547855418923 0.26863974148411485 -16.964208474000827 -0.19403238816271715 -0.36195686337984023 -10.537628129242442 1.7305291896396418 0.24804419047161477 -16.300290374477424 2.60149915331609 0.5760051580242591 -24.952245706988606 10.690553152645462 -2.437135692090051 13.816120017794315 6.727654268196166 3.44337444101901 0.9451726446776155 4.767072916199507 -9.030820132675906 -3.7566148142088305 5.354144962327644 0.5243836749469611 11.15230616569328 7.6078972574437405 7.836916365564425 55.44561849419691 29.078481698789375 -4.307241908784047 -1.5006759240112668 5.602865861170254 16.238982535425862 3.857231081515241 -3.330540692954743 1.0481913368997549 21.900083431273153 -1.0860020718329182 0.0986921468441122 10.305187510158088 -1.651100577131985 0.21974865513710798 15.262748673847593 -1.9957673863109417 0.3934953339791905 14.91272764184432 -1.4516304702968124 0.15543002978305057 14.33751784926576 -2.416338089102784 0.4232472467775535 22.165577442446942 -1.3928600316473123 0.13771922454003205 13.455958146511142 -1.3454545070933712 0.1597783687759703 13.371874168689736 -5.123437859575584 -2.893057647640788 25.4895064552007 -2.3158359522941394 0.4837115253910315 19.80418953798777 -1.2270910053535773 0.11840525552198851 11.116940576870057 -7.805870420121063 -10.162599111999963 19.700484401063996 -8.894864127839863 -1.4639539868478544 -14.472730002916254 -21.652736481074893 5.72890979689752 -5.822863003940145 6.960186789336824 -3.6570885243752596 2.2513845870576326 6.656023148987929 -16.727097729351332 14.118730382657217 9.597804157444665 30.736154171799658 3.8978505367991447 1.5540267566307053 -11.12662433575973 -5.857422996628478 0.0000015770608892528419 -0.000002871999555595135 -0.0000017280628370872501 -7.9773597524525455 -3.0748354591805653 9.443946833145102 -7.646897917330999 18.679641771872532 -1.4611254043951751 0.015443249974745117 -11.360836148613828 -0.9135987488264701 -0.0000062098615786129645 -0.4860900638671956 0.0000037740063854076668
0.02052892930805683 -0.3187260350259855 0.06972523778676987 -0.19868756829454842 -3.382803391227686 -8.427241474473119 -0.92802896362235 -2.7330058634114693 8.84886649854365 -0.5257128868011104 3.413292746342823 4.41738653173599 0 0 0 -0.47372425127265705 4.741284052264895 -5.0569155218417325 -1.5813914502297208 -11.286202120002208 0.9450236928183684 0 0 0 0 0 0 -6.7796198887106565 0.5319015780189476 -9.61909081043263 0.7960358042631023 2.4804178955609384 -65.86705434443799 -21.514932833155918 -3.2720901775546842 0.9027275541856498 -8.628577574467963 16.829310234996356 -4.9656343465373975 -0.2130265909770067 -0.37418029942853326 -10.68504579917659 1.384193519659894 0.15624170471859083 -12.861686761554733 1.647768656568114 0.22621125031420933 -15.573831833176309 5.796363067661496 1.1910985325161263 -12.45359702590227 -2.654707275442109 0.21596303544431614 -13.93941241406464 1.102117354017267 0.13782110404293837 -10.401613902546082 -0.008633763584160167 -0.09453127506300323 -4.364073836054627 1.5153233660228647 0.18821277779849963 -14.204333699867412 1.8013622524513941 0.26866807640848134 -16.964172819355614 -0.19381966209473225 -0.36188791978244483 -10.537616592583596 1.730501347717271 0.24803365160441418 -16.300326028581438 2.601504270937126 0.5760096405624191 -24.95222280575591 10.69000512688855 -2.437392697005028 13.816131581160464 6.727487947656354 3.4432882677547414 0.9451862714631228 4.766725012560654 -9.030850389820847 -3.7571929087448184 5.364912207868578 0.5261571974216864 11.141649661076041 7.672354259597447 8.026803234109163 55.58105269778452 29.06085776501383 -4.304937900050329 -1.4991270938348458 5.614217617960802 16.226759263408713 3.9115436747450314 -3.3305477258675618 1.0481814101200084 21.90008501586168 -1.0860365368036133 0.09868855165131539 10.305404001973132 -1.6511164721808524 0.21977400172867417 15.262736243506602 -1.9957792377902526 0.39350365846856344 14.912667144889408 -1.4516317505509813 0.1554289358815413 14.337524466744728 -2.4163336106543447 0.42327787674288697 22.16556033996631 -1.3928597115758643 0.13772589466591284 13.455925834586866 -1.3454626157384362 0.15977173866421976 13.371894063008071 -5.123430196546285 -2.893052945893272 25.489521744764364 -2.315856853409071 0.48371403344049596 19.804132340867348 -1.2270777748688562 0.11841595439584086 11.116923163297635 -7.8058911274953555 -10.16263554204638 19.70044286449833 -8.894844192647968 -1.463965409798903 -14.472694363567294 -21.652773447279348 5.728903790481961 -5.822965282573038 6.960185940125719 -3.6570885243752596 2.2514304562533543 6.674226230617153 -16.77479873711293 14.181672993284643 9.438418356926062 30.79519433213917 3.834825349407009 1.5543104901621538 -11.144770579401419 -5.8573789034694785 -0.000012447956187894403 -0.00005156841806955751 -0.0000041084371855704505 -7.970898302640953 -3.1081089105566724 9.489478212117515 -7.673874644065836 18.719575355585633 -1.4622519461547323 0.0664343245716591 -11.360607989469573 -0.9380732100843528 -0.000016214953926363063 -0.4789883362610733 0.0000026247397502168265
0.01892334409058094 -0.3195786198648527 0.06587197631597519 -0.23641520079026848 -3.3928803764221622 -8.453567291678837 -0.9046322509366002 -2.5807801855413572 8.85068249029091 -0.554236938057418 3.079038456201948 4.417436189296983 0 0 0 -0.4486577209404879 4.764185447970985 -5.035902667326628 -1.4932159587556275 -11.07166604848233 0.9502108159491013 0 0 0 0 0 0 -6.691491780512784 0.5352995310453679 -9.547997782616248 0.9529095152568364 2.686054945456166 -66.00610237317937 -21.465491544544317 -3.2650540954254033 0.8992768636260884 -8.71121109633981 16.713864822194147 -4.817925661575821 -0.21285952907443448 -0.3742016175438936 -10.686461267795275 1.384214964542592 0.15625343080961537 -12.86180687587532 1.648538922017643 0.2264467069146161 -15.58135289093824 5.7963660412333295 1.1910861501227579 -12.453620179642868 -2.6543659237842405 0.21605495016663062 -13.942678360425287 1.1032459769668865 0.13807438206527767 -10.412199047502067 -0.008574636344379414 -0.09453917915009646 -4.364576407371578 1.5156113826659359 0.18829061836280758 -14.207144916673503 1.8017315472046562 0.26874278242407534 -16.96778971679143 -0.19297034895409934 -0.36171692152011364 -10.540334450462264 1.7306235926164004 0.24808349110811023 -16.301372150477317 2.6016429699726333 0.5760692476475728 -24.953730931981276 10.689295635428813 -2.4378385568534062 13.816129024014575 6.727932803416746 3.443997112579696 0.9454210662260408 4.767647105038693 -9.030518425855268 -3.7576291078394273 5.360371707508264 0.5267480870886339 11.086230762268466 7.742842059067364 8.218576612056305 55.74217212202386 29.0341255988921 -4.301442515500288 -1.496798989684485 5.591750249169722 16.25316127313133 4.074510589792276 -3.330542824140456 1.0481769270581978 21.90007898808983 -1.0861884394682564 0.09870133826465945 10.306879888017626 -1.6511895384585904 0.21979587983932378 15.26347277759916 -1.9959291066404201 0.3935286319367322 14.914121833492914 -1.451796883163661 0.15547006391027723 14.338952458542177 -2.4163478990373566 0.42328113184373967 22.165566665560117 -1.392964268244258 0.1377249208275341 13.456894148066986 -1.3454540803225767 0.1597921626100818 13.371892401746878 -5.123825702847759 -2.892834100939571 25.491952318031878 -2.3160094089665666 0.48377171857843365 19.805727375556536 -1.22708652406038 0.11841069834060615 11.116920650032542 -7.805874328721652 -10.162627735607511 19.700472968493393 -8.89484334886656 -1.4639552679264736 -14.472725868163575 -21.65276899080124 5.728877190642385 -5.822895015140738 6.960195281447702 -3.657078685944086 2.2514044624446847 6.699330477377147 -16.81352114058617 14.233919430147337 9.339715969087118 30.83742501406467 3.7823769031528762 1.5603931363545656 -11.146225530071948 -5.850662200927931 -0.0000028528567893004634 -0.00002768405927887456 -0.000005086224984406666 -7.960418904704334 -3.1393849276350183 9.526074307481887 -7.698200718608862 18.754216616052577 -1.46612477707479 0.10316796992200107 -11.35415516711053 -0.9601380571008797 3.834976948046109e-7 -0.4768624192840337 0.0000024110249581524583
